name rise34.3697peak60.0498fall86.3158.mot
datacolumns 19
datarows 15
range 1.05666700000000 1.07999400000000
endheader
time	ground_force1_vx	ground_force1_vy	ground_force1_vz	ground_force1_px	ground_force1_py	ground_force1_pz	ground_force2_vx	ground_force2_vy	ground_force2_vz	ground_force2_px	ground_force2_py	ground_force2_pz	ground_torque1_x	ground_torque1_y	ground_torque1_z	ground_torque2_x	ground_torque2_y	ground_torque2_z	
1.05666700000000	62.84490200000000	774.33925499999998	50.90178800000000	0.41198700000000	0.00000000000000	0.10455800000000	0.00000000000000	0.00000000000000	0.00000000000000	0.00000000000000	0.00000000000000	0.00000000000000	0.00000000000000	27.36852900000000	0.00000000000000	0.00000000000000	0.00000000000000	0.00000000000000	
1.05834500000000	62.21850100000000	776.95386699999995	51.07353500000000	0.41083400000000	0.00000000000000	0.10461000000000	0.00000000000000	0.00000000000000	0.00000000000000	0.00000000000000	0.00000000000000	0.00000000000000	0.00000000000000	27.49124600000000	0.00000000000000	0.00000000000000	0.00000000000000	0.00000000000000	
1.05999200000000	61.59278300000000	779.44430699999998	51.24366600000000	0.40968800000000	0.00000000000000	0.10466400000000	0.00000000000000	0.00000000000000	0.00000000000000	0.00000000000000	0.00000000000000	0.00000000000000	0.00000000000000	27.61367300000000	0.00000000000000	0.00000000000000	0.00000000000000	0.00000000000000	
1.06166600000000	60.96823400000000	781.80968199999995	51.41156600000000	0.40855000000000	0.00000000000000	0.10472000000000	0.00000000000000	0.00000000000000	0.00000000000000	0.00000000000000	0.00000000000000	0.00000000000000	0.00000000000000	27.73529200000000	0.00000000000000	0.00000000000000	0.00000000000000	0.00000000000000	
1.06332800000000	60.34528000000000	784.04916700000001	51.57657100000000	0.40742000000000	0.00000000000000	0.10477700000000	0.00000000000000	0.00000000000000	0.00000000000000	0.00000000000000	0.00000000000000	0.00000000000000	0.00000000000000	27.85555100000000	0.00000000000000	0.00000000000000	0.00000000000000	0.00000000000000	
1.06499600000000	59.72428500000000	786.16201599999999	51.73798000000000	0.40629800000000	0.00000000000000	0.10483600000000	0.00000000000000	0.00000000000000	0.00000000000000	0.00000000000000	0.00000000000000	0.00000000000000	0.00000000000000	27.97387400000000	0.00000000000000	0.00000000000000	0.00000000000000	0.00000000000000	
1.06665900000000	59.10555500000000	788.14756499999999	51.89505700000000	0.40518300000000	0.00000000000000	0.10489700000000	0.00000000000000	0.00000000000000	0.00000000000000	0.00000000000000	0.00000000000000	0.00000000000000	0.00000000000000	28.08966000000000	0.00000000000000	0.00000000000000	0.00000000000000	0.00000000000000	
1.06833000000000	58.48934400000000	790.00524199999995	52.04704200000000	0.40407600000000	0.00000000000000	0.10495900000000	0.00000000000000	0.00000000000000	0.00000000000000	0.00000000000000	0.00000000000000	0.00000000000000	0.00000000000000	28.20229100000000	0.00000000000000	0.00000000000000	0.00000000000000	0.00000000000000	
1.06999900000000	57.87585000000000	791.73457699999994	52.19315400000000	0.40297700000000	0.00000000000000	0.10502200000000	0.00000000000000	0.00000000000000	0.00000000000000	0.00000000000000	0.00000000000000	0.00000000000000	0.00000000000000	28.31113900000000	0.00000000000000	0.00000000000000	0.00000000000000	0.00000000000000	
1.07165900000000	57.26522700000000	793.33520099999998	52.33259900000000	0.40188500000000	0.00000000000000	0.10508700000000	0.00000000000000	0.00000000000000	0.00000000000000	0.00000000000000	0.00000000000000	0.00000000000000	0.00000000000000	28.41556700000000	0.00000000000000	0.00000000000000	0.00000000000000	0.00000000000000	
1.07333300000000	56.65758000000000	794.80686000000003	52.46457900000000	0.40080100000000	0.00000000000000	0.10515300000000	0.00000000000000	0.00000000000000	0.00000000000000	0.00000000000000	0.00000000000000	0.00000000000000	0.00000000000000	28.51493600000000	0.00000000000000	0.00000000000000	0.00000000000000	0.00000000000000	
1.07499700000000	56.05297200000000	796.14941599999997	52.58829300000000	0.39972300000000	0.00000000000000	0.10522000000000	0.00000000000000	0.00000000000000	0.00000000000000	0.00000000000000	0.00000000000000	0.00000000000000	0.00000000000000	28.60861100000000	0.00000000000000	0.00000000000000	0.00000000000000	0.00000000000000	
1.07666300000000	55.45143000000000	797.36285499999997	52.70295100000000	0.39865100000000	0.00000000000000	0.10528800000000	0.00000000000000	0.00000000000000	0.00000000000000	0.00000000000000	0.00000000000000	0.00000000000000	0.00000000000000	28.69596300000000	0.00000000000000	0.00000000000000	0.00000000000000	0.00000000000000	
1.07833000000000	54.85294300000000	798.44729099999995	52.80777300000000	0.39758600000000	0.00000000000000	0.10535700000000	0.00000000000000	0.00000000000000	0.00000000000000	0.00000000000000	0.00000000000000	0.00000000000000	0.00000000000000	28.77637700000000	0.00000000000000	0.00000000000000	0.00000000000000	0.00000000000000	
1.07999400000000	54.25746700000000	799.40297099999998	52.90200000000000	0.39652500000000	0.00000000000000	0.10542700000000	0.00000000000000	0.00000000000000	0.00000000000000	0.00000000000000	0.00000000000000	0.00000000000000	0.00000000000000	28.84925400000000	0.00000000000000	0.00000000000000	0.00000000000000	0.00000000000000	
